/* XPM */
static char *Candy_Cane_Red[] = {
/* columns rows colors chars-per-pixel */
"64 64 9 1 ",
"  c #170003",
". c #121A23",
"X c #53000E",
"o c #6E0B1C",
"O c #50696F",
"+ c #6B7B79",
"@ c #871730",
"# c #808684",
"$ c None",
/* pixels */
"..........          ......          ......          ......      ",
"..........          ......          ......          ......      ",
"..++####@@@@@@@@oo++++##@@@@@@@@oo++++##@@@@@@@@oo++++##@@@@oo  ",
"..++####@@@@@@@@oo++++##@@@@@@@@oo++++##@@@@@@@@oo++++##@@@@oo  ",
"..OO++@@oo@@oo@@####++@@@@oooo@@####++@@oo@@oo@@####++@@@@ooXX  ",
"..OO++@@oo@@oo@@####++@@@@oooo@@####++@@oo@@oo@@####++@@@@ooXX  ",
"..OOoooo@@@@@@####++@@@@oooo@@####++@@@@@@@@@@####++@@@@ooXXXX..",
"..OOoooo@@@@@@####++@@@@oooo@@####++@@@@@@@@@@####++@@@@ooXXXX..",
"..XXXXooXX@@++##++@@@@@@@@@@++####@@oo@@XX@@++##++@@@@@@ooooOO..",
"..XXXXooXX@@++##++@@@@@@@@@@++####@@oo@@XX@@++##++@@@@@@ooooOO..",
"  XXoooooo++####@@@@ooXXoo######@@@@@@oooo++####@@@@ooXXoo++OO..",
"  XXoooooo++####@@@@ooXXoo######@@@@@@oooo++####@@@@ooXXoo++OO..",
"  ooooXX++++++@@@@ooXXXX####++@@@@ooXXXX++++++@@@@ooXXXX++++OO  ",
"  ooooXX++++++@@@@ooXXXX####++@@@@ooXXXX++++++@@@@ooXXXX++++OO  ",
"  oo@@####++oooo@@oo@@####++oooo@@oo@@####++oooo@@oo@@####++oo  ",
"  oo@@####++oooo@@oo@@####++oooo@@oo@@####++oooo@@oo@@####++oo  ",
"  @@++####@@@@@@@@@@++####oo@@@@oooo######@@@@@@@@@@++####@@@@  ",
"  @@++####@@@@@@@@@@++####oo@@@@oooo######@@@@@@@@@@++####@@@@  ",
"  ++####@@@@@@@@oo++++##@@@@@@@@oo++++##@@@@@@@@oo++++##@@@@oo  ",
"  ++####@@@@@@@@oo++++##@@@@@@@@oo++++##@@@@@@@@oo++++##@@@@oo  ",
"..OO++@@@@oooo@@####++@@oo@@oo@@####++@@@@oooo@@####++@@@@ooXX  ",
"..OO++@@@@oooo@@####++@@oo@@oo@@####++@@@@oooo@@####++@@@@ooXX  ",
"..OO@@oooooo@@####++@@@@@@@@@@####++@@@@oooo@@####++@@@@@@ooXX..",
"..OO@@oooooo@@####++@@@@@@@@@@####++@@@@oooo@@####++@@@@@@ooXX..",
"..XXoo@@oo@@++####@@ooooXX@@++##++@@@@@@@@@@++####@@oo@@ooooOO..",
"..XXoo@@oo@@++####@@ooooXX@@++##++@@@@@@@@@@++####@@oo@@ooooOO..",
"  XXXXoooo++####@@@@@@oooo++####@@@@ooXXoo######@@@@@@oooo++OO..",
"  XXXXoooo++####@@@@@@oooo++####@@@@ooXXoo######@@@@@@oooo++OO..",
"  ooooXX##OO++@@@@ooXXXX++++++@@@@ooXXXX####++@@@@ooXXXX####OO  ",
"  ooooXX##OO++@@@@ooXXXX++++++@@@@ooXXXX####++@@@@ooXXXX####OO  ",
"  @@oo####++@@@@@@@@oo####++oooo@@oo@@####++oooo@@oo@@####++oo  ",
"  @@oo####++@@@@@@@@oo####++oooo@@oo@@####++oooo@@oo@@####++oo  ",
"  oo##++##oo@@@@@@@@++####@@@@@@@@@@++####oo@@@@oooo######@@@@  ",
"  oo##++##oo@@@@@@@@++####@@@@@@@@@@++####oo@@@@oooo######@@@@  ",
"  ++####@@@@@@@@oo++####@@@@@@@@oo++++##@@@@@@@@oo++++##@@@@oo  ",
"  ++####@@@@@@@@oo++####@@@@@@@@oo++++##@@@@@@@@oo++++##@@@@oo  ",
"..OO++@@@@@@oo@@####++@@@@oooo@@####++@@oo@@oo@@####++@@@@ooXX  ",
"..OO++@@@@@@oo@@####++@@@@oooo@@####++@@oo@@oo@@####++@@@@ooXX  ",
"..OOoooo@@oo@@######@@@@oooo@@####++@@@@@@@@@@####++@@@@ooXXXX..",
"..OOoooo@@oo@@######@@@@oooo@@####++@@@@@@@@@@####++@@@@ooXXXX..",
"..XXXXooXX@@++##++@@@@@@XX@@++##++@@@@@@oo@@++####@@ooooooXXOO..",
"..XXXXooXX@@++##++@@@@@@XX@@++##++@@@@@@oo@@++####@@ooooooXXOO..",
"  XXoooooo++####@@@@ooXXoo++####@@@@ooXXoo++####@@@@@@ooXX++OO..",
"  XXoooooo++####@@@@ooXXoo++####@@@@ooXXoo++####@@@@@@ooXX++OO..",
"  ooooXX++++++@@@@ooXXXX++++++@@@@ooXXXX##OO++@@@@ooXXXX##++OO  ",
"  ooooXX++++++@@@@ooXXXX++++++@@@@ooXXXX##OO++@@@@ooXXXX##++OO  ",
"  oo@@####++oooo@@oo@@####++oooo@@oo@@####++@@@@@@@@oo####++@@  ",
"  oo@@####++oooo@@oo@@####++oooo@@oo@@####++@@@@@@@@oo####++@@  ",
"  @@++####@@@@@@@@@@++####@@@@@@@@@@++####oo@@@@@@@@++####@@@@  ",
"  @@++####@@@@@@@@@@++####@@@@@@@@@@++####oo@@@@@@@@++####@@@@  ",
"  ++####@@@@@@@@oo++++##@@@@@@@@oo++++##@@@@@@@@oo++####@@@@oo  ",
"  ++####@@@@@@@@oo++++##@@@@@@@@oo++++##@@@@@@@@oo++####@@@@oo  ",
"..OO++@@@@oooo@@####++@@@@oooo@@####++@@@@@@oo@@####++@@@@ooXX  ",
"..OO++@@@@oooo@@####++@@@@oooo@@####++@@@@@@oo@@####++@@@@ooXX  ",
"..OO@@oooooo@@####++@@@@oooo@@####++@@@@@@oo@@######@@@@ooXXXX..",
"..OO@@oooooo@@####++@@@@oooo@@####++@@@@@@oo@@######@@@@ooXXXX..",
"..XXoooo@@@@++####@@oo@@@@@@++####@@oo@@oo@@++####@@ooooooXXOO..",
"..XXoooo@@@@++####@@oo@@@@@@++####@@oo@@oo@@++####@@ooooooXXOO..",
"  XXoooooo######@@@@@@oooo######@@@@@@oooo++####@@@@@@ooXXOOOO..",
"  XXoooooo######@@@@@@oooo######@@@@@@oooo++####@@@@@@ooXXOOOO..",
"  XXXXXXOOOO++@@@@ooXXXXOOOO++@@@@ooXXXXOOOO++@@@@ooXXXXOOOOOO..",
"  XXXXXXOOOO++@@@@ooXXXXOOOO++@@@@ooXXXXOOOO++@@@@ooXXXXOOOOOO..",
"      ......          ......          ......          ..........",
"      ......          ......          ......          .........."
};
