/* XPM */
static char *ChestRed[] = {
/* columns rows colors chars-per-pixel */
"48 75 15 1 ",
"  c #310000",
". c #380000",
"X c #4F0000",
"o c #62000B",
"O c #7B0000",
"+ c #3A4F54",
"@ c #51666B",
"# c #9E0000",
"$ c #C00000",
"% c #DC0000",
"& c #FC0000",
"* c #758386",
"= c #9AB0B3",
"- c #D0E4F6",
"; c None",
/* pixels */
";;;;;;;;;......XXXXXXXXXXXXXXXXXX......;;;;;;;;;",
";;;;;;;;;......XXXXXXXXXXXXXXXXXX......;;;;;;;;;",
";;;;;;;;;......XXXXXXXXXXXXXXXXXX......;;;;;;;;;",
";;;;;;...@@@...###############OOO...@@@...;;;;;;",
";;;;;;...@@@...###############OOO...@@@...;;;;;;",
";;;;;;...@@@...###############OOO...@@@...;;;;;;",
";;;XXX...***...$$$$$$%%%$$$$$$###...***...XXX;;;",
";;;XXX...***...$$$$$$%%%$$$$$$###...***...XXX;;;",
";;;XXX...***...$$$$$$%%%$$$$$$###...***...XXX;;;",
"XXXXXXXXX===XXX$$$%%%%%%%%%$$$###XXX===XXXXXXXXX",
"XXXXXXXXX===XXX$$$%%%%%%%%%$$$###XXX===XXXXXXXXX",
"XXXXXXXXX===XXX$$$%%%%%%%%%$$$###XXX===XXXXXXXXX",
"XXXOOOXXX---XXX############OOOOOOXXX---XXXOOOXXX",
"XXXOOOXXX---XXX############OOOOOOXXX---XXXOOOXXX",
"XXXOOOXXX---XXX############OOOOOOXXX---XXXOOOXXX",
"XXXXXXXXX---XXX$$$$$$$$$%%%$$$###XXX---XXX###XXX",
"XXXXXXXXX---XXX$$$$$$$$$%%%$$$###XXX---XXX###XXX",
"XXXXXXXXX---XXX$$$$$$$$$%%%$$$###XXX---XXX###XXX",
"XXX###XXX===XXX$$$$$$%%%$$$%%%###XXX===XXX%%%XXX",
"XXX###XXX===XXX$$$$$$%%%$$$%%%###XXX===XXX%%%XXX",
"XXX###XXX===XXX$$$$$$%%%$$$%%%###XXX===XXX%%%XXX",
"XXX###...===...$$$%%%%%%%%%$$$###...===...&&&XXX",
"XXX###...===...$$$%%%%%%%%%$$$###...===...&&&XXX",
"XXX###...===...$$$%%%%%%%%%$$$###...===...&&&XXX",
"XXX###XXX***XXX############OOOOOOXXX***XXX%%%XXX",
"XXX###XXX***XXX############OOOOOOXXX***XXX%%%XXX",
"XXX###XXX***XXX############OOOOOOXXX***XXX%%%XXX",
"XXXOOO...***...$$$$$$$$$$$$$$$###...***...###   ",
"XXXOOO...***...$$$$$$$$$$$$$$$###...***...###   ",
"XXXOOO...***...$$$$$$$$$$$$$$$###...***...###   ",
"XXX###...@@@...$$$%%%%%%%%%$$$###...@@@...$$$   ",
"XXX###...@@@...$$$%%%%%%%%%$$$###...@@@...$$$   ",
"XXX###...@@@...$$$%%%%%%%%%$$$###...@@@...$$$   ",
"XXX###...+++...##################...+++...###   ",
"XXX###...+++...##################...+++...###   ",
"XXX###...+++...##################...+++...###   ",
"XXXOOO...+++...OOO............OOO...+++...OOO   ",
"XXXOOO...+++...OOO............OOO...+++...OOO   ",
"XXXOOO...+++...OOO............OOO...+++...OOO   ",
"XXXXXX............@@@******@@@............XXX   ",
"XXXXXX............@@@******@@@............XXX   ",
"XXXXXX............@@@******@@@............XXX   ",
"...OOO............@@@......@@@............OOO...",
"...OOO............@@@......@@@............OOO...",
"...OOO............@@@......@@@............OOO...",
"...OOO...+++......+++......+++......+++...OOO...",
"...OOO...+++......+++......+++......+++...OOO...",
"...OOO...+++......+++......+++......+++...OOO...",
"...XXX...@@@......+++@@@@@@+++......@@@...XXX...",
"...XXX...@@@......+++@@@@@@+++......@@@...XXX...",
"...XXX...@@@......+++@@@@@@+++......@@@...XXX...",
"...###...+++...ooo............ooo...+++...###...",
"...###...+++...ooo............ooo...+++...###...",
"...###...+++...ooo............ooo...+++...###...",
"...OOO...@@@...OOOOOOOOOOOOOOOOOO...@@@...OOO...",
"...OOO...@@@...OOOOOOOOOOOOOOOOOO...@@@...OOO...",
"...OOO...@@@...OOOOOOOOOOOOOOOOOO...@@@...OOO...",
"...XXX...@@@...XXXXXXXXXXXXXXXXXX...@@@...XXX...",
"...XXX...@@@...XXXXXXXXXXXXXXXXXX...@@@...XXX...",
"...XXX...@@@...XXXXXXXXXXXXXXXXXX...@@@...XXX...",
"...###...@@@...OOO############OOO...@@@...###...",
"...###...@@@...OOO############OOO...@@@...###...",
"...###...@@@...OOO############OOO...@@@...###...",
"...OOO...+++...OOOOOOOOOOOOOOOOOO...+++...OOO...",
"...OOO...+++...OOOOOOOOOOOOOOOOOO...+++...OOO...",
"...OOO...+++...OOOOOOOOOOOOOOOOOO...+++...OOO...",
";;;..........................................;;;",
";;;..........................................;;;",
";;;..........................................;;;",
";;;;;;;;;;;;;;;;;;;;;;;;;;;;;;;;;;;;;;;;;;;;;;;;",
";;;;;;;;;;;;;;;;;;;;;;;;;;;;;;;;;;;;;;;;;;;;;;;;",
";;;;;;;;;;;;;;;;;;;;;;;;;;;;;;;;;;;;;;;;;;;;;;;;",
";;;;;;;;;;;;;;;;;;;;;;;;;;;;;;;;;;;;;;;;;;;;;;;;",
";;;;;;;;;;;;;;;;;;;;;;;;;;;;;;;;;;;;;;;;;;;;;;;;",
";;;;;;;;;;;;;;;;;;;;;;;;;;;;;;;;;;;;;;;;;;;;;;;;"
};
