/* XPM */
static char *Ice_Brick_Wall[] = {
/* columns rows colors chars-per-pixel */
"64 64 9 1 ",
"  c #0F1D45",
". c #446170",
"X c #143987",
"o c #145487",
"O c #4E6C81",
"+ c #657A86",
"@ c #7C8385",
"# c #878C8D",
"$ c None",
/* pixels */
"                                                                ",
"                                                                ",
"  ooXXXX@@@@XXXXooXXXXoo@@@@XXXXooXXXXoo@@@@XXXXooXXXXoo####OO  ",
"  ooXXXX@@@@XXXXooXXXXoo@@@@XXXXooXXXXoo@@@@XXXXooXXXXoo####OO  ",
"  ..ooOO@@++ooooooooOOoo@@++ooooooooOOoo@@++ooooooooOOooXX@@..  ",
"  ..ooOO@@++ooooooooOOoo@@++ooooooooOOoo@@++ooooooooOOooXX@@..  ",
"  ..OO..@@oo....OOOO..oo@@oo....OOOO..oo@@oo....OOOO..ooOO@@OO  ",
"  ..OO..@@oo....OOOO..oo@@oo....OOOO..oo@@oo....OOOO..ooOO@@OO  ",
"  @@@@@@@@@@@@@@##@@@@@@@@@@@@@@##@@@@@@@@@@@@@@##@@@@@@@@@@@@  ",
"  @@@@@@@@@@@@@@##@@@@@@@@@@@@@@##@@@@@@@@@@@@@@##@@@@@@@@@@@@  ",
"  oo@@ooXX++##oo##@@XXooXX++##oo##@@XXooXX++##oo##@@XXooooooXX  ",
"  oo@@ooXX++##oo##@@XXooXX++##oo##@@XXooXX++##oo##@@XXooooooXX  ",
"  @@ooooooOOOOXX@@++ooooooOOOOXX@@++ooooooOOOOXX@@++ooooOOOOXX  ",
"  @@ooooooOOOOXX@@++ooooooOOOOXX@@++ooooooOOOOXX@@++ooooOOOOXX  ",
"  ..OOOO..OO..OO@@..OO....OO..OO@@..OO....OO..OO@@..OO..OO++@@  ",
"  ..OOOO..OO..OO@@..OO....OO..OO@@..OO....OO..OO@@..OO..OO++@@  ",
"  @@@@@@@@####@@@@@@@@@@@@####@@@@@@@@@@@@####@@@@@@@@@@@@####  ",
"  @@@@@@@@####@@@@@@@@@@@@####@@@@@@@@@@@@####@@@@@@@@@@@@####  ",
"  ooXXXX####OO++@@@@++XX####OO++@@@@++XX####OO++@@@@++XX@@@@XX  ",
"  ooXXXX####OO++@@@@++XX####OO++@@@@++XX####OO++@@@@++XX@@@@XX  ",
"  ..ooOOXX@@..oo++ooOOXXXX@@..oo++ooOOXXXX@@..oo++ooOOXX@@++oo  ",
"  ..ooOOXX@@..oo++ooOOXXXX@@..oo++ooOOXXXX@@..oo++ooOOXX@@++oo  ",
"  ..OO..OO@@OO..OO....OOOO@@OO..OO....OOOO@@OO..OO....OO@@oo..  ",
"  ..OO..OO@@OO..OO....OOOO@@OO..OO....OOOO@@OO..OO....OO@@oo..  ",
"  @@@@@@@@@@@@@@@@@@@@@@@@@@@@@@##@@@@@@@@@@@@@@##@@@@@@@@@@@@  ",
"  @@@@@@@@@@@@@@@@@@@@@@@@@@@@@@##@@@@@@@@@@@@@@##@@@@@@@@@@@@  ",
"  ooXXXXooooXX@@++ooXXXXooXX++##@@oo@@ooXX++##oo##@@XXooooooXX  ",
"  ooXXXXooooXX@@++ooXXXXooXX++##@@oo@@ooXX++##oo##@@XXooooooXX  ",
"  ooOOooOOOOXX@@..ooOOooooooOO++@@@@ooooooOOOOXX@@++ooooOOOOXX  ",
"  ooOOooOOOOXX@@..ooOOooooooOO++@@@@ooooooOOOOXX@@++ooooOOOOXX  ",
"  ..OOOOOO++@@##++..OOOOOO....OO@@..OOOO..OO..OO@@..OO..OO++@@  ",
"  ..OOOOOO++@@##++..OOOOOO....OO@@..OOOO..OO..OO@@..OO..OO++@@  ",
"  @@@@@@@@######@@@@@@@@@@@@@@@@@@@@@@@@@@####@@@@@@@@@@@@####  ",
"  @@@@@@@@######@@@@@@@@@@@@@@@@@@@@@@@@@@####@@@@@@@@@@@@####  ",
"  XXXXoo@@@@XXXXooXXXXooXX@@++@@++ooXXXX####OO++@@@@++XX@@@@XX  ",
"  XXXXoo@@@@XXXXooXXXXooXX@@++@@++ooXXXX####OO++@@@@++XX@@@@XX  ",
"  ooOOoo@@++ooooooooOOoooo@@oo++oo..ooOOXX@@..oo++ooOOXX@@++oo  ",
"  ooOOoo@@++ooooooooOOoooo@@oo++oo..ooOOXX@@..oo++ooOOXX@@++oo  ",
"  OO..oo@@oo....OOOO..oooo@@..ooOO..OO..OO@@OO..OO....OO@@oo..  ",
"  OO..oo@@oo....OOOO..oooo@@..ooOO..OO..OO@@OO..OO....OO@@oo..  ",
"  @@@@@@@@@@@@@@@@@@@@@@@@@@@@@@##@@@@@@@@@@@@@@##@@@@@@@@@@@@  ",
"  @@@@@@@@@@@@@@@@@@@@@@@@@@@@@@##@@@@@@@@@@@@@@##@@@@@@@@@@@@  ",
"  ooXXXXooooXX@@++ooXXXXooXX++##@@oo@@ooooXX++##@@oo@@ooXX++##  ",
"  ooXXXXooooXX@@++ooXXXXooXX++##@@oo@@ooooXX++##@@oo@@ooXX++##  ",
"  ooOOooOOOOXX@@..ooOOooooooOO++@@@@ooooooooOO++@@@@ooooooOOOO  ",
"  ooOOooOOOOXX@@..ooOOooooooOO++@@@@ooooooooOO++@@@@ooooooOOOO  ",
"  ..OOOOOO++@@##++..OOOOOO....OO@@..OOOOOO....OO@@..OOOO..OO..  ",
"  ..OOOOOO++@@##++..OOOOOO....OO@@..OOOOOO....OO@@..OOOO..OO..  ",
"  @@@@@@@@######@@@@@@@@@@@@@@@@@@@@@@@@@@@@@@@@@@@@@@@@@@####  ",
"  @@@@@@@@######@@@@@@@@@@@@@@@@@@@@@@@@@@@@@@@@@@@@@@@@@@####  ",
"  XXXXoo@@@@XXXXooXXXXooXX@@++@@++ooXXXXXX@@++@@++ooXXXX####OO  ",
"  XXXXoo@@@@XXXXooXXXXooXX@@++@@++ooXXXXXX@@++@@++ooXXXX####OO  ",
"  ooOOoo@@++ooooooooOOoooo@@oo++oo..ooOOoo@@oo++oo..ooOOXX@@..  ",
"  ooOOoo@@++ooooooooOOoooo@@oo++oo..ooOOoo@@oo++oo..ooOOXX@@..  ",
"  OO..oo@@oo....OOOO..oooo@@..ooOO..OO..oo@@..ooOO..OO..OO@@OO  ",
"  OO..oo@@oo....OOOO..oooo@@..ooOO..OO..oo@@..ooOO..OO..OO@@OO  ",
"  @@@@@@@@@@@@@@##@@@@@@@@@@@@@@@@@@@@@@@@@@@@@@@@@@@@@@@@@@@@  ",
"  @@@@@@@@@@@@@@##@@@@@@@@@@@@@@@@@@@@@@@@@@@@@@@@@@@@@@@@@@@@  ",
"  oo@@ooXX++##oo##@@XXooooooXX@@++ooXXXXooooXX@@++ooXXXXooooXX  ",
"  oo@@ooXX++##oo##@@XXooooooXX@@++ooXXXXooooXX@@++ooXXXXooooXX  ",
"  @@ooooooOOOOXX@@++ooooOOOOXX@@..ooOOooOOOOXX@@..ooOOooOOOOXX  ",
"  @@ooooooOOOOXX@@++ooooOOOOXX@@..ooOOooOOOOXX@@..ooOOooOOOOXX  ",
"                                                                ",
"                                                                "
};
