/* XPM */
static char *Nora_Celebi[] = {
/* columns rows colors chars-per-pixel */
"80 80 44 1 ",
"  c #101010",
". c #101010",
"X c #31313A",
"o c #2C5921",
"O c #4A7321",
"+ c #2B4868",
"@ c #6E6E4E",
"# c #965B5B",
"$ c #CE4242",
"% c #73A531",
"& c #3B8746",
"* c #53A857",
"= c #52BD54",
"- c #6CDE52",
"; c #72C270",
": c #BA855F",
"> c #A49259",
", c #B5C55A",
"< c #A5DE52",
"1 c #D0C275",
"2 c #1B5F83",
"3 c #21739E",
"4 c #0062B4",
"5 c #0063B5",
"6 c #577C9B",
"7 c #6B7384",
"8 c #963FA0",
"9 c #BB38A3",
"0 c #CD62A4",
"q c #528CAD",
"w c #529AD6",
"e c #76CDE2",
"r c #E5B08A",
"t c #BADEA9",
"y c #DEEE94",
"u c #F8D0B8",
"i c #8CB5CE",
"p c #ACC8D0",
"a c #FFFFDE",
"s c #C1C1E9",
"d c #C5DEE6",
"f c #E8E8F8",
"g c white",
"h c None",
/* pixels */
"hhhhhhhhhhhhhhhhhhhhhhhhhhhhhhhhhhhhhhhhhhhhhhhhhhhhhhhhhhhhhhhhhhhhhhhhhhhhhhhh",
"hhhhhhhhhhhhhhhhhhhhhhh6666hhhhhhhhhhhhhhhhhhhhhhhhhhhhhhhhhhhhhhhhhhhhhhhhhhhhh",
"hhhhhhhhhhhhhhhhhhhhh66ddd6hhhhhhhhhhhhhhhhhhhhhhhhhhhhhhhhhhhhhhhhhhhhhhhhhhhhh",
"hhhhhhhhhhhhhhhhhhhh6dd666hhhhhhhhhhhhhhhhhhhhhhhhhhhhhhhhhhhhhhhhhhhhhhhhhhhhhh",
"hhhhhhhhhhhhhhhhhhh6dd6hhhhhhhhhhhhhhhhhhhhhhhhhhhhhhhhhhhhhhhhhhhhhhhhhhhhhhhhh",
"hhhhhhhhhhhhhhhhhhhOd hh6666hhhhhhhhhhhhhhhhhhhhhhhhhhhhhhhhhhhhhhhhhhhhhhhhhhhh",
"hhhhhhhhhhhhhhhhhhOa hOOiiii66hhhhhhhhhhhhhhhhhhhhhhhhhhhhhhhhhhhhhhhhhhhhhhhhhh",
"hhhhhhhhhhhhhhhhhhOa O,,   iii6hhhhhhhhhhhhhhhhhhhhhhhhhhhhhhhhhhhhhhhhhhhhhhhhh",
"hhhhhhhhhhhhhhhhhOaa  OOhhh  6hhhhhhhhhhhhhhhhhhhhhhhhhhhhhhhhhhhhhhhhhhhhhhhhhh",
"hhhhhhhhhhhhhhhhOOa,aaa,O hhhhhhhhO hhhhhhhhhhhhhhhhhhhhhhhhhhhhhhhhhhhhhhhhhhhh",
"hhhhhhhhhhhhhhhO,aaaaaaaa,  hhhhOO< hhhhhhhhhhhhhhhhhhhhhhhhhhhhhhhhhhhhhhhhhhhh",
"hhhhhhhhhhhhhhO,aaa..aaaaaaO  OO<< hh&hhhhhhhhhhhhhhhhhhhhhhhhhhhhhhhhhhhhhhhhhh",
"hhhhhhhhhhhhhhOaa..gg.aaaaaa<<<<<O h&hhhhooo   hhhhhhhhhhhhhhhhhhhhhhhhhhhhhhhhh",
"hhhhhhhhhhhhhOaa..ggq5.aaaa,,,,OOOhh&hh  90000o  hhh66hhhhhhhhhhhhhhhhhhhhhhhhhh",
"hhhhhhhhhhhhhOaa..gqg5.aaaaaaa<<O hhhoo;;;**o009o h6gd6hhhhhhhhhhhhhhhhhhhhhhhhh",
"hhhhhhhhhhhhhOaaa..55.aaaaaaa,<O hhh ;;;;;;*;o 09o6dgg hhhhhhhhhhhhhhhhhhhhhhhhh",
"hhhhhhhhhhhhhhOaaa7..aaaaaaa,,< hhh&;;;t;***;;&o086dd666hhhhhhhhhhhhhhhhhhhhhhhh",
"hhhhhhhhhhhhhh aaaaaaaaaaa,,,, hhhh&t;t;;;;&;;* 86d66dgd6hhhhhhhhhhhhhhhhhhhhhhh",
"hhhhhhhhhhhhhhh ,aaaaaa,,,,,  hhhh&;;tt;;;;o;;t&o 6ddgdg hhhhhhhhhhhhhhhhhhhhhhh",
"hhhhhhhhhhhhhhhh  ,,,,,,,,  666hhh&;;t;tt*o:ot** 8  ddg hhhhhhhhhhhhhhhhhhhhhhhh",
"hhhhhhhhhhhhhhhhhhOOO,,,,OOOddd6ho;;;;;*&o:::o &&o8&   hhhhhhhhhhhhhhhhhhhhhhhhh",
"hhhhhhhhhhhhhhhhhhhh ,aa,,,,Odd6ho;;&  &rrr  :: & 8& hhhhhhhhhhhhhhhhhhhhhhhhhhh",
"hhhhhhhhhhhhhhhhhhhh aaaO,aaaOOOh ;; s5rruu5s : & 8o hhhhhhhhhhhhhhhhhhhhhhhhhhh",
"hhhhhhhhhhhhhhhhhhhh aaa%OOaaaaaO ;o#f rruu so: *&o hhhhhhhhhhhhhhhhhhhhhhhhhhhh",
"hhhhhhhhhhhhhhhhhhhhhOaa%<<  aaa h & u5ruuu5fro;r & hhhhhhhhhhhhhhhhhhhhhhhhhhhh",
"hhhhhhhhhhhhhhhhhhhhh a%<<<<O   hh & rruuuuuur&;: * hhhhhhhhhhhhhhhhhhhhhhhhhhhh",
"hhhhhhhhhhhhhhhhhhhhhh %<<<<Ohhhhh & :rruuu:uo;  ** hhhhhhhhhhhhhhhhhhhhhhhhhhhh",
"hhhhhhhhhhhhhhhhhhhhhhh O<%<<Ohhhhh & rr:gguro; ;*ohhhhhhhhhhhhhhhhhhhhhhhhhhhhh",
"hhhhhhhhhhhhhhhhhhhhhhhh   O<<Ohhhh o& :uuu:o;;o**ohhhhhhhhhhhhhhhhhhhhhhhhhhhhh",
"hhhhhhhhhhhhhhhhhhhhhhhhhO%%O<<Ohhhh &o ::  o;;&** hhhhhhhhhhhhhhhhhhhhhhhhhhhhh",
"hhhhhhhhhhhhhhhhhhhhhhhhO%%%O<<Ohhhhh   rrro  &&&& hhhhhhhhhhhhhhhhhhhhhhhhhhhhh",
"hhhhhhhhhhhhhhhhhhhhhhhh %%O<<<Ohhh  :o==--==o #&&& hhhhhhhhhhhhhhhhhhhhhhhhhhhh",
"hhhhhhhhhhhhhhhhhhhhhhhhh   << hh##rr oyyy>==:ur#&& hhhhhhhhhhhhhhhhhhhhhhhhhhhh",
"hhhhhhhhhhhhhhhhhhhhhhhhhhhh  hh#rrrr ggygy>ouuu# && hhhhhhhhhhhhhhhhhhhhhhhhhhh",
"hhhhhhhhhhhhhhhhhhhhhhhhhhhhhh #rrrroygyggg> ruuu && hhhhhhhhhhhhhhhhhhhhhhhhhhh",
"hhhhhhhhhhhhhhhhhhhhhhhhhhhhh #uurro&>yygg>== uuur && hhhhhhhhhhhhhhhhhhhhhhhhhh",
"hhhhhhhhhhhhhhhhhhhhhhhhhhhh uuuur o=-&&==-&=  uuu &&ohhhhhhhhhhhhhhhhhhhhhhhhhh",
"hhhhhhhhhhhhhhhhhhhhhhhhhhh uuur  h ==&-----& & ruu &&ohhhhhhhhhhhhhhhhhhhhhhhhh",
"hhhhhhhhhhhhhhhhhhhhhhhhhh rur# hhhh =&o=--= && rur &&ohhhhhhhhhhhhhhhhhhhhhhhhh",
"hhhhhhhhhhhhhhhhhhhhhhhhh#rrr#hhhhhhhoggoo= &&&& rrr &ohhhhhhhhhhhhhhhhhhhhhhhhh",
"hhhhhhhhhhhhhhhhhhhhhhhh uur hhhhhhhh g1gg1o&&*& #rrr &ohhhhhhhhhhhhhhhhhhhhhhhh",
"hhhhhhhhhhhhhhhhhhhhhhh uuuu hhhhhhh y ===== &*&&#uur &ohhhhhhhhhhhhhhhhhhhhhhhh",
"hhhhhhhhhhhhhhhhhhhhhhh uruu hhhhhhh>y ---== &&&#uuu#&&ohhhhhhhhhhhhhhhhhhhhhhhh",
"hhhhhhhhhhhhhhhhhhhhhh#uXX#u hhhhhh ggyo-==== &&#uuu#&& hhhhhhhhhhhhhhhhhhhhhhhh",
"hhhhhhhhhhhhhhhhhhhhhh uX$$rhhhhhh  yg>o=--  u  ruu#&&& hhhhhhhhhhhhhhhhhhhhhhhh",
"hhhhhhhhhhhhhhhhhhhhhh rXgg hhhhhh 3  ++o-- u#u#rrr &&& hhhhhhhhhhhhhhhhhhhhhhhh",
"hhhhhhhhhhhhhhhhhhhhhhh r  hhhhhh 3+3+3w+o=o#uuurr &&&& hhhhhhhhhhhhhhhhhhhhhhhh",
"hhhhhhhhhhhhhhhhhhhhhhhh  hhhhhh 3www+ww3wo2 u#ur   && hhhhhhhhhhhhhhhhhhhhhhhhh",
"hhhhhhhhhhhhhhhhhhhhhhhhhhhhhhh+3wwew3www3ww3#uu hhh & hhhhhhhhhhhhhhhhhhhhhhhhh",
"hhhhhhhhhhhhhhhhhhhhhhhhhhhhhh+333wwwweew+ww33  3 hhh hhhhhhhhhhhhhhhhhhhhhhhhhh",
"hhhhhhhhhhhhhhhhhhhhhhhhhhhhh+33+ww3w+wwwww3333+33 hhhhhhhhhhhhhhhhhhhhhhhhhhhhh",
"hhhhhhhhhhhhhhhhhhhhhhhhhhhhhh++wwww3+www3+33333  hhhhhhhhhhhhhhhhhhhhhhhhhhhhhh",
"hhhhhhhhhhhhhhhhhhhhhhhhhhhhhhh 3www3ww333++33+  hhhhhhhhhhhhhhhhhhhhhhhhhhhhhhh",
"hhhhhhhhhhhhhhhhhhhhhhhhhhhhhhh#  3w+wwwww3   rr hhhhhhhhhhhhhhhhhhhhhhhhhhhhhhh",
"hhhhhhhhhhhhhhhhhhhhhhhhhhhhhhh#rr  +3wwww  rrrr hhhhhhhhhhhhhhhhhhhhhhhhhhhhhhh",
"hhhhhhhhhhhhhhhhhhhhhhhhhhhhhhh#grrr  ++  h ruuur hhhhhhhhhhhhhhhhhhhhhhhhhhhhhh",
"hhhhhhhhhhhhhhhhhhhhhhhhhhhhhhh#gurr hhhhhhh#uuuu hhhhhhhhhhhhhhhhhhhhhhhhhhhhhh",
"hhhhhhhhhhhhhhhhhhhhhhhhhhhhhhh puu hhhhhhhh ruuup hhhhhhhhhhhhhhhhhhhhhhhhhhhhh",
"hhhhhhhhhhhhhhhhhhhhhhhhhhhhhhh ggp hhhhhhhhh#pggg hhhhhhhhhhhhhhhhhhhhhhhhhhhhh",
"hhhhhhhhhhhhhhhhhhhhhhhhhhhhhhh6gggp hhhhhhhh ggggg hhhhhhhhhhhhhhhhhhhhhhhhhhhh",
"hhhhhhhhhhhhhhhhhhhhhhhhhhhhhh 6ggpp hhhhhhhhh6gggg hhhhhhhhhhhhhhhhhhhhhhhhhhhh",
"hhhhhhhhhhhhhhhhhhhhhhhhhhhhhh ppppp hhhhhhhhh6pggp6 hhhhhhhhhhhhhhhhhhhhhhhhhhh",
"hhhhhhhhhhhhhhhhhhhhhhhhhhhhhh pppp6hhhhhhhhhh ppppp hhhhhhhhhhhhhhhhhhhhhhhhhhh",
"hhhhhhhhhhhhhhhhhhhhhhhhhhhhhh pppp6hhhhhhhhhhh pppp hhhhhhhhhhhhhhhhhhhhhhhhhhh",
"hhhhhhhhhhhhhhhhhhhhhhhhhhhhhh6pppp hhhhhhhhhhh pppp6hhhhhhhhhhhhhhhhhhhhhhhhhhh",
"hhhhhhhhhhhhhhhhhhhhhhhhhhhhhh6pppp hhhhhhhhhhhh6ppp6 hhhhhhhhhhhhhhhhhhhhhhhhhh",
"hhhhhhhhhhhhhhhhhhhhhhhhhhhhhh6ppp6hhhhhhhhhhhhh pppp hhhhhhhhhhhhhhhhhhhhhhhhhh",
"hhhhhhhhhhhhhhhhhhhhhhhhhhhhhh ppp hhhhhhhhhhhhhh6ppp hhhhhhhhhhhhhhhhhhhhhhhhhh",
"hhhhhhhhhhhhhhhhhhhhhhhhhhhhhh pp hhhhhhhhhhhhhhh ppp hhhhhhhhhhhhhhhhhhhhhhhhhh",
"hhhhhhhhhhhhhhhhhhhhhhhhhhhhhh gp hhhhhhhhhhhhhhh ppp6hhhhhhhhhhhhhhhhhhhhhhhhhh",
"hhhhhhhhhhhhhhhhhhhhhhhhhhhhh pgp hhhhhhhhhhhhhhhh gp6hhhhhhhhhhhhhhhhhhhhhhhhhh",
"hhhhhhhhhhhhhhhhhhhhhhhhhhhhh6pp hhhhhhhhhhhhhhhhh gpp hhhhhhhhhhhhhhhhhhhhhhhhh",
"hhhhhhhhhhhhhhhhhhhhhhhhhhhh pp6 hhhhhhhhhhhhhhhhh6ppp hhhhhhhhhhhhhhhhhhhhhhhhh",
"hhhhhhhhhhhhhhhhhhhhhhhhhh@@===@g hhhhhhhhhhhhhhh6ppp6 hhhhhhhhhhhhhhhhhhhhhhhhh",
"hhhhhhhhhhhhhhhhhhhhhhhhh@gggg=gg hhhhhhhhhhhhhh@@==@g hhhhhhhhhhhhhhhhhhhhhhhhh",
"hhhhhhhhhhhhhhhhhhhhhhhhh ggggggg hhhhhhhhhhhhh@gggg=g hhhhhhhhhhhhhhhhhhhhhhhhh",
"hhhhhhhhhhhhhhhhhhhhhhhhh =====  hhhhhhhhhhhhhh ggggg= hhhhhhhhhhhhhhhhhhhhhhhhh",
"hhhhhhhhhhhhhhhhhhhhhhhhhh     hhhhhhhhhhhhhhhh =====  hhhhhhhhhhhhhhhhhhhhhhhhh",
"hhhhhhhhhhhhhhhhhhhhhhhhhhhhhhhhhhhhhhhhhhhhhhhh     hhhhhhhhhhhhhhhhhhhhhhhhhhh",
"hhhhhhhhhhhhhhhhhhhhhhhhhhhhhhhhhhhhhhhhhhhhhhhhhhhhhhhhhhhhhhhhhhhhhhhhhhhhhhhh"
};
