/* XPM */
static char *Snow_Brick_Wall[] = {
/* columns rows colors chars-per-pixel */
"64 64 7 1 ",
"  c #2A3346",
". c #3B485C",
"X c #4E5763",
"o c #646D6E",
"O c #6B7577",
"+ c #7E7C7A",
"@ c None",
/* pixels */
"                                                                ",
"                                                                ",
"  OO++OO..oo++OO++++OO..OO++++OO++++OO....oo++OO++++OO..oo++OO  ",
"  OO++OO..oo++OO++++OO..OO++++OO++++OO....oo++OO++++OO..oo++OO  ",
"  XXoo++..oooooooooo++..XXooOOOOoooo++....oooooooooo++..XXoo++  ",
"  XXoo++..oooooooooo++..XXooOOOOoooo++....oooooooooo++..XXoo++  ",
"  ooXXoo..ooXXooooXXoo..XXXXooooooXXoo....ooXXooooXXoo..ooXXoo  ",
"  ooXXoo..ooXXooooXXoo..XXXXooooooXXoo....ooXXooooXXoo..ooXXoo  ",
"  ............................................................  ",
"  ............................................................  ",
"  oo++OO++++OOOOOO..OO++OOOO++++OO..oo++++++OOOOOO..OO++OO++OO  ",
"  oo++OO++++OOOOOO..OO++OOOO++++OO..oo++++++OOOOOO..OO++OO++OO  ",
"  XXOOooooOOoo++++..ooooooOOOO++OO..XXooooOOoo++++..ooooooOO++  ",
"  XXOOooooOOoo++++..ooooooOOOO++OO..XXooooOOoo++++..ooooooOO++  ",
"  ooXXXXooooXXoooo..XXXXXXooXXooOO..ooooooooXXoooo..XXXXooXXoo  ",
"  ooXXXXooooXXoooo..XXXXXXooXXooOO..ooooooooXXoooo..XXXXooXXoo  ",
"  ............................................................  ",
"  ............................................................  ",
"  oo++++OO..OO++OO++++..OO..OO++++OO++..OO..OO++OO++++..oo++OO  ",
"  oo++++OO..OO++OO++++..OO..OO++++OO++..OO..OO++OO++++..oo++OO  ",
"  XXOOoo++..XXooOOooOO..OO..XXoooooo++..++..XXooOOooOO..XXoo++  ",
"  XXOOoo++..XXooOOooOO..OO..XXoooooo++..++..XXooOOooOO..XXoo++  ",
"  ooXXXXOO..ooooXXXXOO..oo..XXooXXXXoo..OO..ooooXXXXOO..XXoooo  ",
"  ooXXXXOO..ooooXXXXOO..oo..XXooXXXXoo..OO..ooooXXXXOO..XXoooo  ",
"  ............................................................  ",
"  ............................................................  ",
"  OO++OOOO++++++..oo++OO++++OOOOOO..OO++OOOO++++OO..oo++OO++++  ",
"  OO++OOOO++++++..oo++OO++++OOOOOO..OO++OOOO++++OO..oo++OO++++  ",
"  ooooooOOooOOOO..ooOOOOooOOoo++++..ooooooOOOO++OO..XXooooooOO  ",
"  ooooooOOooOOOO..ooOOOOooOOoo++++..ooooooOOOO++OO..XXooooooOO  ",
"  XXXXXXXXooooXX..XXXXooooooXXoooo..XXXXXXooXXooOO..ooooXXXXoo  ",
"  XXXXXXXXooooXX..XXXXooooooXXoooo..XXXXXXooXXooOO..ooooXXXXoo  ",
"  ............................................................  ",
"  ............................................................  ",
"  oo++OO..oo++OO++OO..OOOO..OO++OO++++..OO..OO++++OO++..OO++++  ",
"  oo++OO..oo++OO++OO..OOOO..OO++OO++++..OO..OO++++OO++..OO++++  ",
"  ooOO++..ooOOOOOOOO..XX++..XXooOOooOO..OO..XXoooooo++..XXoo++  ",
"  ooOO++..ooOOOOOOOO..XX++..XXooOOooOO..OO..XXoooooo++..XXoo++  ",
"  XXXXoo..XXXXooXXOO..XXOO..ooooXXXXOO..oo..XXooXXXXoo..ooXXoo  ",
"  XXXXoo..XXXXooXXOO..XXOO..ooooXXXXOO..oo..XXooXXXXoo..ooXXoo  ",
"  ............................................................  ",
"  ............................................................  ",
"  oo++OO++++OOOOOO..OO++++++OOOOOO..OO++OO++++++..oo++OOOO++++  ",
"  oo++OO++++OOOOOO..OO++++++OOOOOO..OO++OO++++++..oo++OOOO++++  ",
"  XXOOooooOOoo++++..ooooooOOoo++++..ooooOOooOOOO..ooOOOOooooOO  ",
"  XXOOooooOOoo++++..ooooooOOoo++++..ooooOOooOOOO..ooOOOOooooOO  ",
"  ooXXXXooooXXoooo..XXXXooooXXoooo..XXXXXXooooXX..XXXXooooXXOO  ",
"  ooXXXXooooXXoooo..XXXXooooXXoooo..XXXXXXooooXX..XXXXooooXXOO  ",
"  ............................................................  ",
"  ............................................................  ",
"  oo++++OO..OO++OO++++..OO..OO++OO++++....oo++OO++OO..OO++OOOO  ",
"  oo++++OO..OO++OO++++..OO..OO++OO++++....oo++OO++OO..OO++OOOO  ",
"  XXOOoo++..XXooOOooOO..++..XXooOOooOO....ooOOOOOOOO..XXOOoo++  ",
"  XXOOoo++..XXooOOooOO..++..XXooOOooOO....ooOOOOOOOO..XXOOoo++  ",
"  ooXXXXOO..ooooXXXXOO..OO..ooooXXXXOO....XXXXooXXOO..XXooXXoo  ",
"  ooXXXXOO..ooooXXXXOO..OO..ooooXXXXOO....XXXXooXXOO..XXooXXoo  ",
"  ............................................................  ",
"  ............................................................  ",
"  OO++++OO++OO++..OO++++OO++OO++..OO++++OO++++++..OO++++OO++++  ",
"  OO++++OO++OO++..OO++++OO++OO++..OO++++OO++++++..OO++++OO++++  ",
"  XXooooXXooXXoo..ooXXooXXooXXoo..ooXXooXXooXXXX..XXooXXooXXOO  ",
"  XXooooXXooXXoo..ooXXooXXooXXoo..ooXXooXXooXXXX..XXooXXooXXOO  ",
"                                                                ",
"                                                                "
};
